<svg width="169" height="221" viewBox="0 0 169 221" fill="none" xmlns="http://www.w3.org/2000/svg">
<g filter="url(#filter0_i_2868_18903)">
<g clip-path="url(#clip0_2868_18903)">
<rect width="169" height="221" rx="16" fill="url(#paint0_linear_2868_18903)"/>
<g opacity="0.13">
<mask id="mask0_2868_18903" style="mask-type:alpha" maskUnits="userSpaceOnUse" x="-14" y="1" width="198" height="198">
<circle cx="85" cy="100" r="99" fill="url(#paint1_radial_2868_18903)"/>
</mask>
<g mask="url(#mask0_2868_18903)">
<g style="mix-blend-mode:screen">
<path d="M89.1511 106.666L54.3364 -89.4346L75.6239 -90.5841L93.5699 106.423L89.1511 106.666Z" fill="white"/>
<path d="M89.2099 106.9L2.78493 -82.6153L23.4642 -86.0406L93.5041 106.189L89.2099 106.9Z" fill="white"/>
<path d="M89.342 107.127L-46.3337 -70.361L-26.8636 -75.9525L93.3796 105.962L89.342 107.127Z" fill="white"/>
<path d="M89.5179 107.33L-91.3855 -53.0782L-73.6887 -60.6795L93.1964 105.759L89.5179 107.33Z" fill="white"/>
<path d="M89.7597 107.518L-131.183 -31.1894L-115.758 -40.5815L92.962 105.571L89.7597 107.518Z" fill="white"/>
<path d="M90.0384 107.674L-164.693 -5.29665L-151.987 -16.2059L92.6764 105.414L90.0384 107.674Z" fill="white"/>
<path d="M90.3601 107.8L-190.745 23.8103L-181.123 11.689L92.3533 105.289L90.3601 107.8Z" fill="white"/>
<path d="M90.7123 107.893L-208.624 55.2475L-202.359 42.2738L92.0094 105.195L90.7123 107.893Z" fill="white"/>
<path d="M91.0782 107.94L-217.916 88.2335L-215.205 74.7748L91.6424 105.149L91.0782 107.94Z" fill="white"/>
<path d="M91.4524 107.956L-218.378 121.704L-219.286 108.144L91.2618 105.133L91.4524 107.956Z" fill="white"/>
<path d="M91.8261 107.925L-209.914 154.682L-214.413 141.419L90.8881 105.164L91.8261 107.925Z" fill="white"/>
<path d="M92.1849 107.854L-192.716 186.416L-200.681 173.826L90.5288 105.234L92.1849 107.854Z" fill="white"/>
<path d="M92.5224 107.745L-167.441 215.75L-178.653 204.192L90.1921 105.344L92.5224 107.745Z" fill="white"/>
<path d="M92.8226 107.604L-134.605 241.94L-148.719 231.75L89.8914 105.485L92.8226 107.604Z" fill="white"/>
<path d="M93.0865 107.432L-95.4524 264.22L-112.072 255.688L89.6351 105.657L93.0865 107.432Z" fill="white"/>
<path d="M93.292 107.229L-50.7667 282.042L-69.4235 275.426L89.4229 105.86L93.292 107.229Z" fill="white"/>
<path d="M93.4456 107.01L-1.96332 294.766L-22.115 290.246L89.2688 106.071L93.4456 107.01Z" fill="white"/>
<path d="M93.5406 106.783L49.4341 302.124L28.3738 299.833L89.1732 106.306L93.5406 106.783Z" fill="white"/>
<path d="M92.9353 106.666L127.75 -89.4346L106.463 -90.5841L88.5166 106.423L92.9353 106.666Z" fill="white"/>
<path d="M92.8765 106.9L179.301 -82.6153L158.622 -86.0406L88.5823 106.189L92.8765 106.9Z" fill="white"/>
<path d="M92.7445 107.127L228.42 -70.361L208.95 -75.9525L88.7068 105.962L92.7445 107.127Z" fill="white"/>
<path d="M92.568 107.33L273.471 -53.0782L255.775 -60.6795L88.8894 105.759L92.568 107.33Z" fill="white"/>
<path d="M92.3269 107.518L313.27 -31.1894L297.845 -40.5815L89.1246 105.571L92.3269 107.518Z" fill="white"/>
<path d="M92.0481 107.675L346.78 -5.29652L334.073 -16.2057L89.41 105.415L92.0481 107.675Z" fill="white"/>
<path d="M91.7263 107.8L372.831 23.8103L363.21 11.689L89.7332 105.289L91.7263 107.8Z" fill="white"/>
<path d="M91.3742 107.893L390.711 55.2475L384.445 42.2738L90.0771 105.195L91.3742 107.893Z" fill="white"/>
<path d="M91.0078 107.94L400.002 88.2335L397.291 74.7748L90.4435 105.149L91.0078 107.94Z" fill="white"/>
<path d="M90.6341 107.956L400.464 121.704L401.373 108.144L90.8246 105.133L90.6341 107.956Z" fill="white"/>
<path d="M90.2604 107.925L392 154.682L396.5 141.419L91.1984 105.164L90.2604 107.925Z" fill="white"/>
<path d="M89.9016 107.854L374.802 186.416L382.768 173.826L91.5576 105.234L89.9016 107.854Z" fill="white"/>
<path d="M89.564 107.745L349.528 215.75L360.74 204.192L91.8943 105.344L89.564 107.745Z" fill="white"/>
<path d="M89.2641 107.604L316.692 241.94L330.806 231.75L92.1953 105.485L89.2641 107.604Z" fill="white"/>
<path d="M88.9993 107.432L277.538 264.22L294.158 255.688L92.4508 105.657L88.9993 107.432Z" fill="white"/>
<path d="M88.7944 107.229L232.853 282.042L251.51 275.426L92.6635 105.86L88.7944 107.229Z" fill="white"/>
<path d="M88.6403 107.01L184.049 294.766L204.201 290.246L92.8171 106.071L88.6403 107.01Z" fill="white"/>
<path d="M88.5458 106.783L132.652 302.124L153.713 299.833L92.9132 106.306L88.5458 106.783Z" fill="white"/>
<path d="M88.1279 105.182L84.5237 305.428L105.523 308.229L92.483 105.761L88.1279 105.182Z" fill="white"/>
</g>
</g>
</g>
<g filter="url(#filter1_d_2868_18903)">
<path d="M18.5879 196V179.992H27.0119C30.0599 179.992 31.6199 181.936 31.6199 184.072C31.6199 186.088 30.3719 187.432 28.8599 187.744C30.5639 188.008 31.9319 189.664 31.9319 191.68C31.9319 194.08 30.3239 196 27.2759 196H18.5879ZM21.9959 186.424H26.2679C27.4199 186.424 28.1399 185.68 28.1399 184.648C28.1399 183.664 27.4199 182.896 26.2679 182.896H21.9959V186.424ZM21.9959 193.096H26.3879C27.6839 193.096 28.4519 192.352 28.4519 191.2C28.4519 190.192 27.7319 189.328 26.3879 189.328H21.9959V193.096ZM34.502 196V179.992H37.91V193H44.678V196H34.502ZM58.2725 196L57.2645 193.24H50.1125L49.1045 196H45.3605L51.5525 179.992H55.8245L61.9925 196H58.2725ZM53.6885 182.944L51.0245 190.288H56.3285L53.6885 182.944ZM70.2824 196.288C65.6024 196.288 61.8824 192.928 61.8824 188.008C61.8824 183.088 65.6024 179.728 70.2824 179.728C73.9304 179.728 75.9704 181.648 77.0984 183.64L74.1704 185.08C73.4984 183.784 72.0584 182.752 70.2824 182.752C67.4984 182.752 65.3864 184.984 65.3864 188.008C65.3864 191.032 67.4984 193.264 70.2824 193.264C72.0584 193.264 73.4984 192.256 74.1704 190.936L77.0984 192.352C75.9464 194.344 73.9304 196.288 70.2824 196.288ZM88.631 196L83.783 189.592L82.535 191.08V196H79.127V179.992H82.535V187.144L88.199 179.992H92.399L86.039 187.504L92.831 196H88.631ZM92.9448 194.728L94.4328 192.112C95.0568 192.712 95.8728 193.264 96.9768 193.264C98.4888 193.264 99.4728 192.256 99.4728 190.696V179.992H102.881V190.744C102.881 194.536 100.529 196.288 97.2408 196.288C95.6088 196.288 94.0968 195.856 92.9448 194.728ZM116.468 196L115.46 193.24H108.308L107.3 196H103.556L109.748 179.992H114.02L120.188 196H116.468ZM111.884 182.944L109.22 190.288H114.524L111.884 182.944ZM128.478 196.288C123.798 196.288 120.078 192.928 120.078 188.008C120.078 183.088 123.798 179.728 128.478 179.728C132.126 179.728 134.166 181.648 135.294 183.64L132.366 185.08C131.694 183.784 130.254 182.752 128.478 182.752C125.694 182.752 123.582 184.984 123.582 188.008C123.582 191.032 125.694 193.264 128.478 193.264C130.254 193.264 131.694 192.256 132.366 190.936L135.294 192.352C134.142 194.344 132.126 196.288 128.478 196.288ZM146.826 196L141.978 189.592L140.73 191.08V196H137.322V179.992H140.73V187.144L146.394 179.992H150.594L144.234 187.504L151.026 196H146.826Z" fill="white"/>
</g>
<path d="M113.791 17.8392V20.4084C113.724 20.5032 113.608 20.6241 113.443 20.7712C113.279 20.9183 113.057 21.0507 112.777 21.1684C112.5 21.2828 112.152 21.34 111.734 21.34C111.383 21.34 111.064 21.2779 110.778 21.1537C110.491 21.0295 110.243 20.8481 110.034 20.6094C109.828 20.3675 109.668 20.0685 109.556 19.7122C109.443 19.3526 109.387 18.9358 109.387 18.4619V16.8193C109.387 16.3551 109.437 15.9482 109.536 15.5984C109.64 15.2487 109.788 14.9545 109.981 14.7159C110.177 14.4772 110.415 14.2991 110.696 14.1814C110.976 14.0605 111.294 14 111.652 14C112.093 14 112.466 14.0834 112.772 14.2501C113.078 14.4135 113.316 14.6521 113.487 14.9659C113.661 15.2797 113.762 15.6605 113.791 16.1084H113.236C113.204 15.7782 113.128 15.4955 113.009 15.2601C112.893 15.0248 112.724 14.8433 112.502 14.7159C112.283 14.5884 111.999 14.5246 111.652 14.5246C111.368 14.5246 111.119 14.5737 110.903 14.6717C110.691 14.7698 110.512 14.9153 110.367 15.1081C110.225 15.301 110.119 15.5396 110.048 15.824C109.978 16.1084 109.942 16.4369 109.942 16.8095V18.4619C109.942 18.8476 109.982 19.1875 110.063 19.4817C110.147 19.7726 110.266 20.0178 110.42 20.2172C110.578 20.4133 110.766 20.562 110.985 20.6634C111.204 20.7647 111.454 20.8154 111.734 20.8154C112.03 20.8154 112.28 20.7778 112.482 20.7026C112.685 20.6274 112.848 20.5424 112.97 20.4476C113.096 20.3528 113.186 20.276 113.241 20.2172V18.3589H111.695V17.8392H113.791Z" fill="white"/>
<path d="M107.932 14.0981V21.2371H107.376L104.063 15.1523V21.2371H103.508V14.0981H104.063L107.381 20.1829V14.0981H107.932Z" fill="white"/>
<path d="M101.844 14.0981V21.2371H101.288V14.0981H101.844Z" fill="white"/>
<path d="M100.151 20.7124V21.2371H97.1083V20.7124H100.151ZM97.2581 14.0981V21.2371H96.7027V14.0981H97.2581Z" fill="white"/>
<path d="M93.5463 17.8049H91.9139L91.9043 17.29H93.3193C93.6026 17.29 93.8425 17.2394 94.0389 17.138C94.2385 17.0367 94.3898 16.8863 94.4928 16.6869C94.5991 16.4875 94.6522 16.2424 94.6522 15.9515C94.6522 15.6507 94.6007 15.4023 94.4977 15.2062C94.3978 15.0101 94.2449 14.8646 94.0389 14.7698C93.836 14.6718 93.5801 14.6227 93.271 14.6227H92.0491V21.2371H91.4986V14.0981H93.271C93.5704 14.0981 93.8392 14.1357 94.0775 14.2109C94.319 14.2828 94.5234 14.3955 94.6908 14.5492C94.8583 14.6995 94.9854 14.8924 95.0724 15.1277C95.1625 15.3631 95.2076 15.6426 95.2076 15.9662C95.2076 16.2604 95.1512 16.5251 95.0386 16.7605C94.9259 16.9958 94.7681 17.1887 94.5653 17.3391C94.3657 17.4894 94.1274 17.5826 93.8505 17.6185L93.5463 17.8049ZM93.5076 21.2371H91.7256L92.0202 20.7124H93.5076C93.7909 20.7124 94.0324 20.6536 94.232 20.5359C94.4317 20.415 94.5846 20.245 94.6908 20.026C94.8003 19.8037 94.855 19.5389 94.855 19.2317C94.855 18.9636 94.8083 18.7217 94.715 18.506C94.6216 18.2903 94.4783 18.1203 94.2852 17.9961C94.092 17.8686 93.8457 17.8049 93.5463 17.8049H92.4934L92.5031 17.29H93.9761L94.0823 17.4763C94.3528 17.509 94.5862 17.6071 94.7826 17.7705C94.9822 17.934 95.1367 18.1415 95.2462 18.3932C95.3557 18.6449 95.4104 18.9211 95.4104 19.2219C95.4104 19.6566 95.3299 20.0243 95.1689 20.3251C95.008 20.6225 94.7858 20.8497 94.5025 21.0066C94.2192 21.1602 93.8875 21.2371 93.5076 21.2371Z" fill="white"/>
<path d="M84.367 14.0981H84.9224L87.0522 20.3741L89.1916 14.0981H89.7373L87.2695 21.2371H86.8445L84.367 14.0981ZM84.198 14.0981H84.6809L84.7485 18.1285V21.2371H84.198V14.0981ZM89.4331 14.0981H89.9209V21.2371H89.3703V18.1285L89.4331 14.0981Z" fill="white"/>
<path d="M80.8493 14.5296L78.8258 21.2371H78.2559L80.492 14.0981H80.8831L80.8493 14.5296ZM82.67 21.2371L80.6417 14.5296L80.6175 14.0981H81.0039L83.2399 21.2371H82.67ZM82.3513 18.7168V19.2415H79.1832V18.7168H82.3513Z" fill="white"/>
<path d="M77.375 17.8392V20.4084C77.3074 20.5032 77.1915 20.6241 77.0273 20.7712C76.8631 20.9183 76.641 21.0507 76.3609 21.1684C76.084 21.2828 75.7363 21.34 75.3177 21.34C74.9668 21.34 74.648 21.2779 74.3615 21.1537C74.0749 21.0295 73.827 20.8481 73.6178 20.6094C73.4117 20.3675 73.2523 20.0685 73.1396 19.7122C73.027 19.3526 72.9706 18.9358 72.9706 18.4619V16.8193C72.9706 16.3551 73.0205 15.9482 73.1203 15.5984C73.2234 15.2487 73.3715 14.9545 73.5646 14.7159C73.761 14.4772 73.9993 14.2991 74.2794 14.1814C74.5595 14.0605 74.8782 14 75.2356 14C75.6767 14 76.0502 14.0834 76.356 14.2501C76.6619 14.4135 76.9002 14.6521 77.0708 14.9659C77.2447 15.2797 77.3461 15.6605 77.375 16.1084H76.8197C76.7875 15.7782 76.7118 15.4955 76.5927 15.2601C76.4768 15.0248 76.3077 14.8433 76.0856 14.7159C75.8667 14.5884 75.5833 14.5246 75.2356 14.5246C74.9523 14.5246 74.7028 14.5737 74.4871 14.6717C74.2746 14.7698 74.0959 14.9153 73.951 15.1081C73.8093 15.301 73.7031 15.5396 73.6322 15.824C73.5614 16.1084 73.526 16.4369 73.526 16.8095V18.4619C73.526 18.8476 73.5662 19.1875 73.6467 19.4817C73.7304 19.7726 73.8496 20.0178 74.0041 20.2172C74.1619 20.4133 74.3502 20.562 74.5692 20.6634C74.7881 20.7647 75.0376 20.8154 75.3177 20.8154C75.6139 20.8154 75.8634 20.7778 76.0663 20.7026C76.2691 20.6274 76.4317 20.5424 76.554 20.4476C76.6796 20.3528 76.7698 20.276 76.8245 20.2172V18.3589H75.2791V17.8392H77.375Z" fill="white"/>
<path d="M66.9733 14.0981H69.2286C69.6987 14.0981 70.0995 14.1798 70.4312 14.3432C70.7628 14.5067 71.0171 14.7486 71.1942 15.0689C71.3713 15.3892 71.4598 15.7848 71.4598 16.2555C71.4598 16.6412 71.4083 16.9713 71.3053 17.2459C71.2022 17.5172 71.0558 17.7444 70.8658 17.9274C70.6758 18.1072 70.4489 18.251 70.1849 18.3589L69.755 18.6188H67.9247L67.9198 17.4273H69.19C69.3832 17.4273 69.5425 17.3848 69.6681 17.2998C69.7969 17.2116 69.8919 17.089 69.953 16.9321C70.0174 16.7719 70.0496 16.5856 70.0496 16.3731C70.0496 16.1476 70.0206 15.9547 69.9627 15.7946C69.908 15.6311 69.8194 15.5069 69.6971 15.4219C69.578 15.3337 69.4218 15.2895 69.2286 15.2895H68.3883V21.2371H66.9733V14.0981ZM70.1655 21.2371L68.8761 18.0549L70.3587 18.05L71.6771 21.1684V21.2371H70.1655Z" fill="white"/>
<path d="M65.859 14.0981V21.2371H64.4536V14.0981H65.859Z" fill="white"/>
<path d="M61.1251 15.3729L59.6134 21.2371H58.1212L60.3185 14.0981H61.2506L61.1251 15.3729ZM62.3179 21.2371L60.7967 15.3729L60.6566 14.0981H61.6032L63.8199 21.2371H62.3179ZM62.3711 18.5746V19.7661H59.1981V18.5746H62.3711Z" fill="white"/>
<path d="M56.3068 14.0981V21.2371H54.8917V14.0981H56.3068ZM58.509 17.1331V18.3197H55.9494V17.1331H58.509ZM58.7794 14.0981V15.2895H55.9494V14.0981H58.7794Z" fill="white"/>
<foreignObject x="72.3326" y="33" width="99.2462" height="115.156"><div xmlns="http://www.w3.org/1999/xhtml" style="backdrop-filter:blur(3px);clip-path:url(#bgblur_2_2868_18903_clip_path);height:100%;width:100%"></div></foreignObject><g filter="url(#filter2_d_2868_18903)" data-figma-bg-blur-radius="6">
<g clip-path="url(#clip1_2868_18903)">
<path d="M94.897 54.4548C96.8491 47.1693 97.8252 43.5266 100.695 41.8698C103.565 40.2129 107.207 41.189 114.493 43.1411L139.124 49.741C146.409 51.6931 150.052 52.6692 151.709 55.5389C153.366 58.4087 152.39 62.0514 150.438 69.3369L138.014 115.701C136.062 122.987 135.086 126.63 132.216 128.286C129.347 129.943 125.704 128.967 118.418 127.015L93.7874 120.415C86.5019 118.463 82.8592 117.487 81.2023 114.617C79.5455 111.747 80.5215 108.105 82.4737 100.819L94.897 54.4548Z" fill="url(#paint2_linear_2868_18903)" fill-opacity="0.8" shape-rendering="crispEdges"/>
<path d="M131.729 77.2475C129.675 73.5422 125.059 72.3055 121.428 74.4875L120.024 75.3263C119.442 75.6734 118.686 75.47 118.357 74.8782L117.56 73.4437C115.5 69.7364 110.891 68.5016 107.26 70.6837C103.172 73.1332 101.733 78.5031 104.049 82.6682L112.288 97.5223C112.617 98.1155 113.375 98.3188 113.957 97.9697L128.517 89.2321C132.605 86.7826 134.044 81.4126 131.729 77.2475Z" fill="#FF4848"/>
<path d="M106.133 53.3771C105.681 52.5483 104.658 52.2743 103.852 52.7657L103.54 52.9545C103.411 53.0327 103.243 52.9876 103.171 52.8553L102.995 52.5344C102.54 51.7052 101.52 51.4317 100.713 51.923C99.8052 52.4746 99.4825 53.6787 99.993 54.6103L101.81 57.9327C101.882 58.0654 102.05 58.1104 102.179 58.0318L105.413 56.0643C106.321 55.5128 106.644 54.3087 106.133 53.3771Z" fill="#FF4848"/>
<path d="M125.095 117.709C125.53 118.504 126.511 118.767 127.285 118.295L127.584 118.114C127.708 118.039 127.869 118.082 127.939 118.209L128.107 118.517C128.543 119.313 129.523 119.576 130.297 119.104C131.168 118.575 131.478 117.419 130.988 116.525L129.245 113.337C129.175 113.209 129.014 113.166 128.89 113.242L125.786 115.13C124.915 115.659 124.605 116.815 125.095 117.709Z" fill="#FF4848"/>
<path d="M128.113 121.237L128.968 121.466L126.661 124.865L125.634 124.59L125.338 120.494L126.192 120.723L126.362 123.867L126.392 123.875L128.113 121.237ZM127.772 122.725L125.753 122.184L125.919 121.565L127.937 122.106L127.772 122.725Z" fill="#FF4848"/>
<path d="M102.989 49.7L102.098 49.4614L104.502 45.9193L105.572 46.2062L105.881 50.4749L104.99 50.2363L104.813 46.9594L104.782 46.9511L102.989 49.7ZM103.344 48.1499L105.448 48.7134L105.275 49.358L103.172 48.7945L103.344 48.1499Z" fill="#FF4848"/>
</g>
<path d="M114.428 43.3826L139.059 49.9825C142.709 50.9604 145.422 51.6882 147.431 52.527C149.434 53.3629 150.703 54.2952 151.493 55.6637C152.283 57.0321 152.456 58.5976 152.179 60.7497C151.9 62.9093 151.174 65.6226 150.196 69.2722L137.773 115.637C136.795 119.286 136.067 121.999 135.228 124.008C134.392 126.011 133.46 127.28 132.092 128.07C130.723 128.86 129.158 129.033 127.006 128.756C124.846 128.478 122.133 127.751 118.483 126.774L93.8521 120.174C90.2025 119.196 87.4896 118.468 85.4803 117.629C83.4778 116.793 82.2084 115.861 81.4183 114.492C80.6283 113.124 80.4555 111.559 80.7328 109.406C81.0111 107.247 81.7373 104.534 82.7151 100.884L95.1385 54.5195C96.1164 50.87 96.8442 48.1571 97.683 46.1477C98.5189 44.1452 99.4512 42.8759 100.82 42.0858C102.188 41.2957 103.754 41.123 105.906 41.4003C108.065 41.6786 110.779 42.4047 114.428 43.3826Z" stroke="url(#paint3_linear_2868_18903)" stroke-width="0.5" shape-rendering="crispEdges"/>
</g>
<foreignObject x="9.33301" y="47" width="114.675" height="136.409"><div xmlns="http://www.w3.org/1999/xhtml" style="backdrop-filter:blur(3px);clip-path:url(#bgblur_4_2868_18903_clip_path);height:100%;width:100%"></div></foreignObject><g filter="url(#filter3_d_2868_18903)" data-figma-bg-blur-radius="6">
<g clip-path="url(#clip3_2868_18903)">
<path d="M18.9322 84.5615C17.2355 77.2123 16.3872 73.5377 18.1432 70.7276C19.8992 67.9174 23.5738 67.069 30.9229 65.3723L68.9234 56.5992C76.2725 54.9026 79.9471 54.0542 82.7573 55.8102C85.5675 57.5662 86.4158 61.2408 88.1125 68.59L103.409 134.847C105.106 142.196 105.954 145.871 104.198 148.681C102.442 151.491 98.7676 152.34 91.4185 154.036L53.418 162.809C46.0689 164.506 42.3943 165.354 39.5841 163.598C36.7739 161.842 35.9256 158.168 34.2289 150.819L18.9322 84.5615Z" fill="url(#paint4_linear_2868_18903)" shape-rendering="crispEdges"/>
<path d="M77.7443 107.847C78.2783 110.16 77.8747 112.589 76.6222 114.601C75.3697 116.613 73.3711 118.042 71.0658 118.574C69.6654 118.901 68.206 118.877 66.8157 118.506L69.9535 123.67C70.0612 123.842 70.1255 124.038 70.1409 124.24C70.1563 124.442 70.1222 124.645 70.0416 124.831C69.9651 125.016 69.8458 125.179 69.6938 125.308C69.5417 125.438 69.3611 125.529 69.1669 125.574L60.9407 127.473C60.7462 127.518 60.544 127.515 60.3506 127.466C60.1573 127.416 59.9784 127.321 59.8287 127.189C59.6747 127.057 59.5552 126.89 59.4803 126.701C59.4054 126.513 59.3776 126.309 59.3991 126.107L59.9553 120.09C58.8684 121.033 57.5671 121.694 56.1655 122.015C53.8602 122.547 51.4373 122.138 49.4297 120.879C47.422 119.62 45.9942 117.613 45.4602 115.3C43.5331 106.953 56.4286 93.6253 56.9679 93.0579C57.057 92.9724 57.1674 92.9126 57.2876 92.8848C57.4078 92.8571 57.5333 92.8624 57.6508 92.9003C58.3843 93.1738 75.8172 99.4996 77.7443 107.847Z" fill="#262525"/>
<path d="M30.4826 84.4884C30.6142 85.0583 30.5173 85.6563 30.2133 86.1509C29.9093 86.6456 29.423 86.9963 28.8615 87.1259C28.5204 87.2053 28.1647 87.1986 27.8256 87.1064L28.5935 88.38C28.6199 88.4224 28.6357 88.4706 28.6396 88.5204C28.6434 88.5702 28.6352 88.6201 28.6157 88.6659C28.5972 88.7113 28.5682 88.7515 28.5312 88.7832C28.4942 88.815 28.4503 88.8373 28.403 88.8483L26.3992 89.3109C26.3519 89.3217 26.3026 89.3209 26.2554 89.3086C26.2083 89.2963 26.1646 89.2729 26.128 89.2402C26.0905 89.2076 26.0612 89.1663 26.0428 89.1199C26.0245 89.0734 26.0176 89.0232 26.0227 88.9735L26.1546 87.4922C25.8902 87.7237 25.5735 87.8857 25.2321 87.9638C24.6706 88.0935 24.0798 87.9914 23.5897 87.6801C23.0996 87.3688 22.7504 86.8738 22.6188 86.3039C22.144 84.2473 25.2788 80.9735 25.4099 80.8341C25.4315 80.8131 25.4584 80.7984 25.4877 80.7917C25.517 80.7849 25.5476 80.7863 25.5762 80.7957C25.7551 80.8635 30.0078 82.4318 30.4826 84.4884Z" fill="#262525"/>
<path d="M99.4804 133.807C99.3574 133.274 99.0308 132.811 98.5726 132.52C98.1144 132.229 97.5621 132.134 97.0371 132.255C96.7179 132.328 96.4218 132.48 96.1746 132.696L96.2979 131.311C96.3027 131.265 96.2962 131.218 96.2791 131.174C96.2619 131.131 96.2346 131.092 96.1994 131.062C96.1652 131.031 96.1244 131.009 96.0803 130.998C96.0362 130.986 95.9901 130.986 95.9459 130.996L94.0724 131.428C94.0282 131.438 93.9871 131.459 93.9525 131.489C93.918 131.519 93.8909 131.556 93.8735 131.599C93.8553 131.641 93.8476 131.688 93.8513 131.735C93.8549 131.781 93.8697 131.826 93.8943 131.866L94.6123 133.057C94.2952 132.971 93.9627 132.964 93.6438 133.039C93.1188 133.16 92.6641 133.488 92.3799 133.95C92.0957 134.412 92.0051 134.972 92.1281 135.504C92.572 137.427 96.5481 138.894 96.7153 138.957C96.7421 138.966 96.7707 138.967 96.7981 138.961C96.8255 138.954 96.8506 138.941 96.8709 138.921C96.9934 138.791 99.9243 135.73 99.4804 133.807Z" fill="#262525"/>
<path d="M98.7753 146.868L97.711 147.114L96.8863 143.542C96.8101 143.212 96.8176 142.908 96.9089 142.63C96.9986 142.353 97.1583 142.119 97.3882 141.927C97.618 141.735 97.9054 141.599 98.2502 141.52C98.5568 141.449 98.8478 141.439 99.1232 141.489C99.3973 141.542 99.633 141.663 99.8305 141.853C100.028 142.044 100.166 142.31 100.243 142.651L99.1709 142.898C99.1364 142.764 99.0823 142.655 99.0086 142.57C98.9336 142.487 98.8445 142.43 98.7414 142.4C98.637 142.371 98.5218 142.371 98.3959 142.4C98.2632 142.431 98.1579 142.485 98.0798 142.563C98.0005 142.643 97.9496 142.744 97.9274 142.867C97.9051 142.99 97.9128 143.133 97.9505 143.296L98.7753 146.868Z" fill="#262525"/>
<path d="M23.3723 72.3338L24.5106 72.071L25.3927 75.8918C25.4742 76.245 25.4662 76.57 25.3685 76.8668C25.2726 77.1633 25.1017 77.4141 24.8559 77.6193C24.61 77.8245 24.3027 77.9696 23.9339 78.0548C23.6059 78.1305 23.2947 78.1413 23.0002 78.0872C22.707 78.0308 22.4549 77.9012 22.2436 77.6982C22.032 77.4934 21.8851 77.2089 21.8029 76.8446L22.9491 76.5799C22.986 76.7236 23.0439 76.8408 23.1228 76.9316C23.203 77.0201 23.2982 77.0808 23.4085 77.1136C23.5201 77.1442 23.6433 77.1439 23.7781 77.1128C23.9199 77.0801 24.0326 77.0221 24.1161 76.939C24.201 76.8536 24.2554 76.7452 24.2792 76.6139C24.303 76.4825 24.2947 76.3294 24.2544 76.1546L23.3723 72.3338Z" fill="#262525"/>
</g>
<path d="M30.9792 65.6159L68.9796 56.8428C72.6611 55.9929 75.3981 55.3619 77.566 55.1592C79.7266 54.9572 81.2851 55.1844 82.6251 56.0218C83.9651 56.8591 84.8526 58.1602 85.6181 60.1907C86.3863 62.2281 87.019 64.9647 87.8689 68.6462L103.166 134.903C104.016 138.585 104.647 141.322 104.849 143.49C105.051 145.65 104.824 147.209 103.987 148.549C103.149 149.889 101.848 150.776 99.8177 151.542C97.7803 152.31 95.0437 152.943 91.3622 153.793L53.3618 162.566C49.6803 163.416 46.9433 164.047 44.7754 164.249C42.6148 164.451 41.0563 164.224 39.7163 163.387C38.3763 162.549 37.4888 161.248 36.7233 159.218C35.9551 157.181 35.3224 154.444 34.4725 150.762L19.1758 84.5052C18.3259 80.8238 17.6949 78.0867 17.4922 75.9188C17.2901 73.7582 17.5174 72.1998 18.3547 70.8597C19.1921 69.5197 20.4932 68.6323 22.5237 67.8667C24.5611 67.0986 27.2977 66.4659 30.9792 65.6159Z" stroke="url(#paint5_linear_2868_18903)" stroke-width="0.5" shape-rendering="crispEdges"/>
</g>
</g>
<rect x="0.5" y="0.5" width="168" height="220" rx="15.5" stroke="url(#paint6_linear_2868_18903)" stroke-opacity="0.5"/>
</g>
<defs>
<filter id="filter0_i_2868_18903" x="0" y="0" width="169.5" height="221.5" filterUnits="userSpaceOnUse" color-interpolation-filters="sRGB">
<feFlood flood-opacity="0" result="BackgroundImageFix"/>
<feBlend mode="normal" in="SourceGraphic" in2="BackgroundImageFix" result="shape"/>
<feColorMatrix in="SourceAlpha" type="matrix" values="0 0 0 0 0 0 0 0 0 0 0 0 0 0 0 0 0 0 127 0" result="hardAlpha"/>
<feOffset dx="0.5" dy="0.5"/>
<feGaussianBlur stdDeviation="0.5"/>
<feComposite in2="hardAlpha" operator="arithmetic" k2="-1" k3="1"/>
<feColorMatrix type="matrix" values="0 0 0 0 1 0 0 0 0 1 0 0 0 0 1 0 0 0 0.4 0"/>
<feBlend mode="normal" in2="shape" result="effect1_innerShadow_2868_18903"/>
</filter>
<filter id="filter1_d_2868_18903" x="18.5879" y="179.728" width="132.938" height="17.56" filterUnits="userSpaceOnUse" color-interpolation-filters="sRGB">
<feFlood flood-opacity="0" result="BackgroundImageFix"/>
<feColorMatrix in="SourceAlpha" type="matrix" values="0 0 0 0 0 0 0 0 0 0 0 0 0 0 0 0 0 0 127 0" result="hardAlpha"/>
<feOffset dx="0.5" dy="1"/>
<feComposite in2="hardAlpha" operator="out"/>
<feColorMatrix type="matrix" values="0 0 0 0 0 0 0 0 0 0 0 0 0 0 0 0 0 0 0.25 0"/>
<feBlend mode="normal" in2="BackgroundImageFix" result="effect1_dropShadow_2868_18903"/>
<feBlend mode="normal" in="SourceGraphic" in2="effect1_dropShadow_2868_18903" result="shape"/>
</filter>
<filter id="filter2_d_2868_18903" x="72.3326" y="33" width="99.2462" height="115.156" filterUnits="userSpaceOnUse" color-interpolation-filters="sRGB">
<feFlood flood-opacity="0" result="BackgroundImageFix"/>
<feColorMatrix in="SourceAlpha" type="matrix" values="0 0 0 0 0 0 0 0 0 0 0 0 0 0 0 0 0 0 127 0" result="hardAlpha"/>
<feOffset dx="6" dy="6"/>
<feGaussianBlur stdDeviation="5.5"/>
<feComposite in2="hardAlpha" operator="out"/>
<feColorMatrix type="matrix" values="0 0 0 0 0.625723 0 0 0 0 0.273201 0 0 0 0 0.912579 0 0 0 0.1 0"/>
<feBlend mode="normal" in2="BackgroundImageFix" result="effect1_dropShadow_2868_18903"/>
<feBlend mode="normal" in="SourceGraphic" in2="effect1_dropShadow_2868_18903" result="shape"/>
</filter>
<clipPath id="bgblur_2_2868_18903_clip_path" transform="translate(-72.3326 -33)"><path d="M94.897 54.4548C96.8491 47.1693 97.8252 43.5266 100.695 41.8698C103.565 40.2129 107.207 41.189 114.493 43.1411L139.124 49.741C146.409 51.6931 150.052 52.6692 151.709 55.5389C153.366 58.4087 152.39 62.0514 150.438 69.3369L138.014 115.701C136.062 122.987 135.086 126.63 132.216 128.286C129.347 129.943 125.704 128.967 118.418 127.015L93.7874 120.415C86.5019 118.463 82.8592 117.487 81.2023 114.617C79.5455 111.747 80.5215 108.105 82.4737 100.819L94.897 54.4548Z"/>
</clipPath><filter id="filter3_d_2868_18903" x="9.33301" y="47" width="114.675" height="136.409" filterUnits="userSpaceOnUse" color-interpolation-filters="sRGB">
<feFlood flood-opacity="0" result="BackgroundImageFix"/>
<feColorMatrix in="SourceAlpha" type="matrix" values="0 0 0 0 0 0 0 0 0 0 0 0 0 0 0 0 0 0 127 0" result="hardAlpha"/>
<feOffset dx="6" dy="6"/>
<feGaussianBlur stdDeviation="5.5"/>
<feComposite in2="hardAlpha" operator="out"/>
<feColorMatrix type="matrix" values="0 0 0 0 0.625723 0 0 0 0 0.273201 0 0 0 0 0.912579 0 0 0 0.1 0"/>
<feBlend mode="normal" in2="BackgroundImageFix" result="effect1_dropShadow_2868_18903"/>
<feBlend mode="normal" in="SourceGraphic" in2="effect1_dropShadow_2868_18903" result="shape"/>
</filter>
<clipPath id="bgblur_4_2868_18903_clip_path" transform="translate(-9.33301 -47)"><path d="M18.9322 84.5615C17.2355 77.2123 16.3872 73.5377 18.1432 70.7276C19.8992 67.9174 23.5738 67.069 30.9229 65.3723L68.9234 56.5992C76.2725 54.9026 79.9471 54.0542 82.7573 55.8102C85.5675 57.5662 86.4158 61.2408 88.1125 68.59L103.409 134.847C105.106 142.196 105.954 145.871 104.198 148.681C102.442 151.491 98.7676 152.34 91.4185 154.036L53.418 162.809C46.0689 164.506 42.3943 165.354 39.5841 163.598C36.7739 161.842 35.9256 158.168 34.2289 150.819L18.9322 84.5615Z"/>
</clipPath><linearGradient id="paint0_linear_2868_18903" x1="84.5" y1="0" x2="84.5" y2="221" gradientUnits="userSpaceOnUse">
<stop stop-color="#FE113A"/>
<stop offset="1" stop-color="#FC4E94"/>
</linearGradient>
<radialGradient id="paint1_radial_2868_18903" cx="0" cy="0" r="1" gradientUnits="userSpaceOnUse" gradientTransform="translate(85 108.293) rotate(90) scale(95.8901 99)">
<stop stop-color="white"/>
<stop offset="1" stop-color="white" stop-opacity="0"/>
</radialGradient>
<linearGradient id="paint2_linear_2868_18903" x1="126.808" y1="46.441" x2="106.103" y2="123.715" gradientUnits="userSpaceOnUse">
<stop stop-color="white" stop-opacity="0.7"/>
<stop offset="1" stop-color="white"/>
</linearGradient>
<linearGradient id="paint3_linear_2868_18903" x1="126.808" y1="46.441" x2="106.103" y2="123.715" gradientUnits="userSpaceOnUse">
<stop stop-color="white" stop-opacity="0.3"/>
<stop offset="1" stop-color="white" stop-opacity="0.6"/>
</linearGradient>
<linearGradient id="paint4_linear_2868_18903" x1="49.9231" y1="60.9858" x2="72.4183" y2="158.423" gradientUnits="userSpaceOnUse">
<stop stop-color="white" stop-opacity="0.84"/>
<stop offset="1" stop-color="white"/>
</linearGradient>
<linearGradient id="paint5_linear_2868_18903" x1="49.9231" y1="60.9858" x2="72.4183" y2="158.423" gradientUnits="userSpaceOnUse">
<stop stop-color="white" stop-opacity="0.3"/>
<stop offset="1" stop-color="white" stop-opacity="0.6"/>
</linearGradient>
<linearGradient id="paint6_linear_2868_18903" x1="84.5" y1="0" x2="84.5" y2="221" gradientUnits="userSpaceOnUse">
<stop stop-color="white" stop-opacity="0"/>
<stop offset="1" stop-color="white"/>
</linearGradient>
<clipPath id="clip0_2868_18903">
<rect width="169" height="221" rx="16" fill="white"/>
</clipPath>
<clipPath id="clip1_2868_18903">
<path d="M94.897 54.4548C96.8491 47.1693 97.8252 43.5266 100.695 41.8698C103.565 40.2129 107.207 41.189 114.493 43.1411L139.124 49.741C146.409 51.6931 150.052 52.6692 151.709 55.5389C153.366 58.4087 152.39 62.0514 150.438 69.3369L138.014 115.701C136.062 122.987 135.086 126.63 132.216 128.286C129.347 129.943 125.704 128.967 118.418 127.015L93.7874 120.415C86.5019 118.463 82.8592 117.487 81.2023 114.617C79.5455 111.747 80.5215 108.105 82.4737 100.819L94.897 54.4548Z" fill="white"/>
</clipPath>
<clipPath id="clip3_2868_18903">
<path d="M18.9322 84.5615C17.2355 77.2123 16.3872 73.5377 18.1432 70.7276C19.8992 67.9174 23.5738 67.069 30.9229 65.3723L68.9234 56.5992C76.2725 54.9026 79.9471 54.0542 82.7573 55.8102C85.5675 57.5662 86.4158 61.2408 88.1125 68.59L103.409 134.847C105.106 142.196 105.954 145.871 104.198 148.681C102.442 151.491 98.7676 152.34 91.4185 154.036L53.418 162.809C46.0689 164.506 42.3943 165.354 39.5841 163.598C36.7739 161.842 35.9256 158.168 34.2289 150.819L18.9322 84.5615Z" fill="white"/>
</clipPath>
</defs>
</svg>
