<svg width="40" height="40" viewBox="0 0 40 40" fill="none" xmlns="http://www.w3.org/2000/svg">
<path d="M9.29294 8.58582V28.5858L12.8283 24.1414V13.2323L18.6869 21.3131L27.9798 8.58582H23.5354L18.6869 15.1515L14.1414 8.58582H9.29294Z" fill="white"/>
<path d="M21.3131 18.8889L12.1212 31.4141H16.5657L21.3131 24.7475L25.9596 31.4141H30.7071V11.5151L27.0707 16.0606V26.7677L21.3131 18.8889Z" fill="white"/>
<mask id="mask0_7815_58832" style="mask-type:alpha" maskUnits="userSpaceOnUse" x="12" y="11" width="19" height="21">
<path d="M21.3131 18.8889L12.1212 31.4141H16.5657L21.3131 24.7475L25.9596 31.4141H30.7071V11.5151L27.0707 16.0606V26.7677L21.3131 18.8889Z" fill="white"/>
</mask>
<g mask="url(#mask0_7815_58832)">
<rect opacity="0.4" x="21.5639" y="18.3314" width="6" height="17.7297" transform="rotate(36.3361 21.5639 18.3314)" fill="url(#paint0_linear_7815_58832)"/>
<path opacity="0.4" d="M31.1137 9.26086L37.4522 10.816L27.188 24.7707L24.3492 17.7608L31.1137 9.26086Z" fill="url(#paint1_linear_7815_58832)"/>
</g>
<defs>
<linearGradient id="paint0_linear_7815_58832" x1="21.6123" y1="25.5586" x2="27.7079" y2="25.3196" gradientUnits="userSpaceOnUse">
<stop/>
<stop offset="1" stop-opacity="0"/>
</linearGradient>
<linearGradient id="paint1_linear_7815_58832" x1="28.4738" y1="12.9779" x2="33.5288" y2="16.3923" gradientUnits="userSpaceOnUse">
<stop/>
<stop offset="1" stop-opacity="0"/>
</linearGradient>
</defs>
</svg>
