<svg width="22" height="22" viewBox="0 0 22 22" fill="none" xmlns="http://www.w3.org/2000/svg">
<path d="M20.4957 13.3591C19.191 18.594 13.8889 21.7906 8.6444 20.4851C3.40948 19.1764 0.218008 13.8743 1.52274 8.63941C2.82747 3.40451 8.12634 0.207899 13.3581 1.51342C18.6058 2.80295 21.7972 8.12104 20.4957 13.3591Z" fill="#000008"/>
<path d="M17.0482 14.0182L15.0305 16.1262C14.9867 16.172 14.9336 16.2085 14.8746 16.2335C14.8157 16.2584 14.752 16.2713 14.6878 16.2713H5.12312C5.07748 16.2713 5.03284 16.2583 4.99467 16.2339C4.95651 16.2095 4.92649 16.1748 4.9083 16.134C4.89011 16.0933 4.88454 16.0482 4.89228 16.0044C4.90002 15.9606 4.92073 15.9199 4.95186 15.8874L6.97103 13.7794C7.01478 13.7337 7.06767 13.6973 7.12645 13.6723C7.18524 13.6474 7.24865 13.6345 7.31277 13.6344H16.8769C16.9225 13.6344 16.9672 13.6474 17.0053 13.6717C17.0435 13.6961 17.0735 13.7308 17.0917 13.7716C17.1099 13.8124 17.1155 13.8574 17.1077 13.9013C17.1 13.9451 17.0793 13.9857 17.0482 14.0182ZM15.0305 9.77331C14.9867 9.72752 14.9336 9.69101 14.8746 9.66606C14.8157 9.64112 14.752 9.62825 14.6878 9.62829H5.12312C5.07748 9.62829 5.03284 9.64127 4.99467 9.66566C4.95651 9.69004 4.92649 9.72475 4.9083 9.76552C4.89011 9.8063 4.88454 9.85136 4.89228 9.89518C4.90002 9.93899 4.92073 9.97965 4.95186 10.0122L6.97103 12.1202C7.01478 12.1658 7.06767 12.2023 7.12645 12.2272C7.18524 12.2522 7.24865 12.2651 7.31277 12.2652H16.8769C16.9225 12.2652 16.9672 12.2522 17.0053 12.2278C17.0435 12.2034 17.0735 12.1687 17.0917 12.128C17.1099 12.0872 17.1155 12.0421 17.1077 11.9983C17.1 11.9545 17.0793 11.9138 17.0482 11.8813L15.0305 9.77331ZM5.12312 8.25912H14.6878C14.752 8.25915 14.8157 8.24629 14.8746 8.22134C14.9336 8.19639 14.9867 8.15988 15.0305 8.11409L17.0482 6.00608C17.0793 5.97357 17.1 5.93292 17.1077 5.8891C17.1155 5.84528 17.1099 5.80022 17.0917 5.75945C17.0735 5.71867 17.0435 5.68396 17.0053 5.65958C16.9672 5.6352 16.9225 5.62221 16.8769 5.62221H7.31277C7.24865 5.62231 7.18524 5.63524 7.12645 5.66019C7.06767 5.68513 7.01478 5.72157 6.97103 5.76724L4.95238 7.87525C4.92128 7.90771 4.90058 7.94834 4.89282 7.9921C4.88506 8.03587 4.89059 8.0809 4.90871 8.12165C4.92684 8.16241 4.95678 8.19712 4.99487 8.22154C5.03295 8.24596 5.07753 8.25901 5.12312 8.25912Z" fill="url(#paint0_linear_6420_75972)"/>
<defs>
<linearGradient id="paint0_linear_6420_75972" x1="5.92058" y1="16.5251" x2="15.6582" y2="5.25721" gradientUnits="userSpaceOnUse">
<stop offset="0.08" stop-color="#9945FF"/>
<stop offset="0.3" stop-color="#8752F3"/>
<stop offset="0.5" stop-color="#5497D5"/>
<stop offset="0.6" stop-color="#43B4CA"/>
<stop offset="0.72" stop-color="#28E0B9"/>
<stop offset="0.97" stop-color="#19FB9B"/>
</linearGradient>
</defs>
</svg>
